<?xml version="1.0" standalone="no"?>
<!DOCTYPE svg PUBLIC "-//W3C//DTD SVG 20010904//EN"
 "http://www.w3.org/TR/2001/REC-SVG-20010904/DTD/svg10.dtd">
<svg version="1.0" xmlns="http://www.w3.org/2000/svg"
 width="700.000000pt" height="700.000000pt" viewBox="0 0 700.000000 700.000000"
 preserveAspectRatio="xMidYMid meet">
<metadata>
Created by potrace 1.14, written by Peter Selinger 2001-2017
</metadata>
<g transform="translate(0.000000,700.000000) scale(0.100000,-0.100000)"
fill="#000000" stroke="none">
<path d="M1675 6241 l-300 -6 -67 -33 c-75 -37 -101 -70 -124 -155 -19 -69
-34 -339 -34 -617 0 -361 -19 -458 -96 -495 -33 -16 -77 -20 -289 -26 -377
-12 -431 -32 -507 -194 l-33 -70 -3 -585 c-3 -686 4 -877 39 -965 31 -80 90
-138 161 -160 39 -12 120 -19 311 -26 142 -5 275 -13 296 -19 20 -5 48 -21 61
-34 46 -50 51 -101 61 -566 4 -239 12 -456 17 -482 18 -92 98 -190 179 -217
27 -9 143 -15 383 -20 417 -8 404 -5 408 -103 3 -61 1 -68 -20 -81 -13 -8 -57
-17 -98 -21 -196 -17 -326 -111 -366 -266 -25 -100 -1 -181 78 -256 70 -68
115 -85 253 -96 142 -12 864 -3 1010 12 89 9 105 14 151 46 253 174 126 513
-208 555 -150 19 -148 18 -158 45 -15 39 -12 90 8 113 9 12 35 27 57 32 56 15
984 23 1168 11 104 -7 155 -15 172 -26 28 -19 40 -68 28 -116 -10 -40 -19 -43
-156 -59 -197 -23 -332 -139 -345 -297 -8 -106 38 -198 132 -260 49 -32 62
-35 172 -46 68 -6 323 -12 599 -12 474 -1 481 -1 535 21 119 48 180 129 188
248 4 63 1 80 -23 133 -52 117 -162 192 -311 213 -43 6 -94 13 -111 15 -28 4
-34 10 -43 46 -7 25 -8 54 -3 77 15 62 26 64 403 72 352 7 391 12 467 58 17
11 43 39 57 63 50 86 58 157 66 623 8 451 13 493 55 539 36 39 89 47 373 56
273 8 308 13 367 54 39 27 52 42 76 94 47 100 51 153 56 744 6 722 -5 874 -75
988 -28 45 -78 81 -142 101 -19 6 -156 14 -305 18 -302 8 -331 14 -361 72 -32
64 -36 98 -44 487 -9 394 -18 507 -46 603 -21 70 -73 123 -149 151 l-60 22
-1805 2 c-993 0 -1940 -2 -2105 -5z m1254 -1160 c120 -37 220 -123 272 -234
25 -55 30 -80 40 -227 13 -183 7 -634 -11 -845 -8 -83 -18 -145 -30 -173 -23
-52 -106 -141 -171 -183 -177 -113 -420 -85 -579 67 -73 69 -96 118 -110 227
-28 227 -29 909 -1 1071 22 125 137 243 288 295 78 27 218 28 302 2z m1434 -2
c164 -55 275 -180 296 -336 27 -189 20 -873 -10 -1063 -12 -78 -49 -140 -123
-207 -147 -134 -353 -161 -535 -68 -71 36 -166 127 -195 188 -37 76 -48 233
-48 637 0 372 12 559 42 627 39 89 151 183 266 222 83 28 222 29 307 0z
m-3264 -809 c41 -21 46 -61 46 -365 0 -315 -5 -353 -51 -374 -32 -14 -146 -14
-177 0 -46 21 -51 47 -55 309 -7 425 -2 440 138 440 45 0 89 -4 99 -10z m4990
-7 c35 -29 43 -112 39 -402 -4 -284 -8 -309 -55 -330 -13 -6 -53 -11 -88 -11
-76 0 -108 13 -126 49 -17 35 -25 497 -10 601 14 100 26 110 136 110 64 0 88
-4 104 -17z"/>
</g>
</svg>
